<!DOCTYPE svg PUBLIC "-//W3C//DTD SVG 20010904//EN" "http://www.w3.org/TR/2001/REC-SVG-20010904/DTD/svg10.dtd">
<svg version="1.0" xmlns="http://www.w3.org/2000/svg" width="700px" height="200px" viewBox="0 0 7000 2000" preserveAspectRatio="xMidYMid meet">
<g id="layer101" fill="#5bbc2e" stroke="none">
<path d="M4435 1989 c-103 -15 -180 -47 -228 -94 -22 -23 -27 -37 -27 -77 0 -27 5 -69 11 -94 13 -51 8 -51 109 -8 76 31 209 43 278 25 84 -23 140 -95 162 -207 18 -94 11 -104 -32 -45 -28 36 -54 58 -103 82 -59 29 -76 33 -146 32 -64 0 -88 -5 -133 -27 -67 -33 -118 -90 -148 -165 -21 -51 -23 -72 -22 -226 0 -201 16 -273 90 -425 37 -74 63 -110 118 -166 88 -88 153 -117 266 -118 100 -1 151 26 198 104 27 46 32 50 32 28 0 -14 3 -39 6 -55 6 -29 9 -30 98 -47 67 -13 99 -15 118 -7 66 25 74 124 28 368 -44 237 -59 351 -69 533 -6 91 -17 192 -26 225 -71 273 -284 407 -580 364z m227 -675 c73 -46 127 -208 128 -377 0 -135 -32 -187 -114 -187 -74 0 -141 67 -187 189 -30 79 -38 254 -15 314 36 95 101 117 188 61z"/>
<path d="M5430 1610 c-157 -19 -223 -116 -223 -325 0 -129 8 -185 74 -520 51 -262 73 -403 84 -546 l7 -85 98 -12 c108 -14 135 -9 168 32 47 60 37 174 -52 586 -95 444 -107 581 -56 622 56 46 135 -8 199 -135 36 -73 45 -102 52 -175 36 -352 241 -581 520 -582 126 0 224 48 276 137 26 45 28 55 28 158 0 103 -2 114 -32 178 -70 147 -223 248 -425 282 -42 7 -45 14 -23 49 43 65 175 113 281 102 170 -17 258 -81 319 -232 31 -76 48 -94 89 -94 61 0 116 64 116 136 0 61 -63 177 -133 248 -122 121 -276 177 -487 177 -186 0 -312 -42 -406 -136 l-44 -45 -41 45 c-97 106 -236 154 -389 135z m765 -587 c92 -46 155 -133 155 -214 0 -128 -127 -133 -191 -7 -24 46 -59 178 -59 220 0 28 2 29 33 23 17 -4 46 -14 62 -22z"/>
</g>
<g id="layer102" fill="#ffffff" stroke="none">
<path d="M3052 1960 c-49 -20 -65 -140 -42 -304 6 -38 9 -71 7 -73 -2 -2 -21 4 -43 14 -27 11 -69 17 -134 17 -85 1 -101 -2 -153 -28 -44 -21 -66 -40 -88 -73 -63 -100 -63 -225 0 -533 22 -107 45 -253 51 -324 5 -71 11 -130 13 -131 6 -6 138 -25 170 -25 134 0 150 122 62 470 -71 282 -76 343 -33 390 17 18 28 21 62 17 56 -8 123 -80 161 -174 30 -74 107 -434 126 -591 l12 -98 94 -13 c112 -15 138 -6 168 55 l20 42 43 -38 c69 -62 125 -84 220 -88 73 -4 89 -1 137 23 101 49 152 159 162 345 16 321 -121 635 -319 732 -71 35 -164 50 -229 38 -66 -13 -80 -21 -132 -80 l-44 -51 -12 73 c-27 158 -41 266 -41 329 l0 67 -87 7 c-49 3 -97 8 -108 10 -11 2 -30 0 -43 -5z m524 -636 c85 -40 154 -214 154 -389 0 -137 -30 -195 -101 -195 -105 0 -199 190 -199 401 0 103 19 162 59 184 34 19 46 18 87 -1z"/>
<path d="M470 1610 c-159 -19 -302 -107 -360 -219 -46 -92 -34 -170 40 -243 26 -27 51 -48 56 -48 5 0 24 23 43 51 40 59 96 107 166 142 61 30 101 39 171 38 91 -1 144 -42 144 -114 0 -79 -31 -111 -212 -218 -153 -92 -227 -159 -270 -247 -32 -64 -33 -71 -33 -182 1 -95 5 -125 23 -171 32 -81 96 -164 163 -214 287 -211 742 -73 743 225 0 80 -25 140 -85 205 -86 93 -195 123 -263 72 -30 -23 -107 -152 -95 -160 2 -1 29 -11 59 -21 71 -23 120 -60 120 -90 0 -40 -43 -69 -110 -74 -141 -10 -260 69 -260 172 0 85 42 131 240 261 223 147 290 227 315 371 16 99 -34 235 -118 318 -112 113 -293 168 -477 146z"/>
<path d="M1361 1608 c-57 -13 -120 -76 -143 -143 -53 -151 -46 -299 31 -715 16 -85 32 -171 35 -191 l6 -36 74 -12 c88 -14 140 -4 177 35 21 23 24 34 23 102 -1 43 -19 167 -39 277 -44 231 -52 380 -23 398 30 20 70 -4 105 -62 73 -122 125 -351 149 -657 l6 -81 68 -12 c81 -15 131 -7 164 25 45 46 45 93 -5 419 -51 336 -50 375 9 375 101 0 210 -333 240 -730 l7 -95 50 -13 c109 -28 183 9 211 106 45 154 -37 517 -164 729 -118 196 -240 285 -392 285 -109 0 -164 -35 -207 -131 l-24 -53 -28 38 c-83 116 -208 169 -330 142z"/>
<path d="M2741 353 c-105 -52 -68 -238 60 -304 46 -23 137 -26 178 -4 31 15 61 69 61 107 0 44 -30 114 -63 148 -64 66 -164 88 -236 53z"/>
</g>


</svg>